G04 #@! TF.FileFunction,Soldermask,Bot*
%FSLAX46Y46*%
G04 Gerber Fmt 4.6, Leading zero omitted, Abs format (unit mm)*
G04 Created by KiCad (PCBNEW 4.0.6) date 11/24/17 03:10:44*
%MOMM*%
%LPD*%
G01*
G04 APERTURE LIST*
%ADD10C,0.100000*%
%ADD11C,2.200000*%
%ADD12R,2.100000X2.100000*%
%ADD13O,2.100000X2.100000*%
%ADD14O,1.650000X1.350000*%
%ADD15O,1.400000X1.950000*%
%ADD16R,2.250000X2.250000*%
%ADD17C,2.250000*%
%ADD18C,1.924000*%
%ADD19C,2.100000*%
G04 APERTURE END LIST*
D10*
G36*
X128968164Y-38136658D02*
X127802342Y-40002364D01*
X125936636Y-38836542D01*
X127102458Y-36970836D01*
X128968164Y-38136658D01*
X128968164Y-38136658D01*
G37*
D11*
X125298358Y-37140605D03*
D10*
G36*
X113202342Y-35700836D02*
X114368164Y-37566542D01*
X112502458Y-38732364D01*
X111336636Y-36866658D01*
X113202342Y-35700836D01*
X113202342Y-35700836D01*
G37*
D11*
X110698358Y-38562595D03*
D10*
G36*
X106194548Y-38249598D02*
X107969861Y-39548931D01*
X106670528Y-41324244D01*
X104895215Y-40024911D01*
X106194548Y-38249598D01*
X106194548Y-38249598D01*
G37*
D11*
X104932400Y-41836600D03*
D12*
X133654800Y-111683800D03*
D13*
X133654800Y-109143800D03*
X131114800Y-111683800D03*
X131114800Y-109143800D03*
X128574800Y-111683800D03*
X128574800Y-109143800D03*
D10*
G36*
X147709305Y-55282910D02*
X147506090Y-57473505D01*
X145315495Y-57270290D01*
X145518710Y-55079695D01*
X147709305Y-55282910D01*
X147709305Y-55282910D01*
G37*
D11*
X143983259Y-56041979D03*
D10*
G36*
X134451285Y-41517379D02*
X132649151Y-42779247D01*
X131387283Y-40977113D01*
X133189417Y-39715245D01*
X134451285Y-41517379D01*
X134451285Y-41517379D01*
G37*
D11*
X131462400Y-39166600D03*
D10*
G36*
X94529677Y-54786774D02*
X94694630Y-56980581D01*
X92500823Y-57145534D01*
X92335870Y-54951727D01*
X94529677Y-54786774D01*
X94529677Y-54786774D01*
G37*
D11*
X90982400Y-56156600D03*
D10*
G36*
X101844410Y-42269277D02*
X103619723Y-43568610D01*
X102320390Y-45343923D01*
X100545077Y-44044590D01*
X101844410Y-42269277D01*
X101844410Y-42269277D01*
G37*
D11*
X100582262Y-45856279D03*
D10*
G36*
X89066827Y-58007220D02*
X89231780Y-60201027D01*
X87037973Y-60365980D01*
X86873020Y-58172173D01*
X89066827Y-58007220D01*
X89066827Y-58007220D01*
G37*
D11*
X85519550Y-59377046D03*
D10*
G36*
X117662342Y-31940836D02*
X118828164Y-33806542D01*
X116962458Y-34972364D01*
X115796636Y-33106658D01*
X117662342Y-31940836D01*
X117662342Y-31940836D01*
G37*
D11*
X115158358Y-34802595D03*
D10*
G36*
X138094401Y-45776733D02*
X136292267Y-47038601D01*
X135030399Y-45236467D01*
X136832533Y-43974599D01*
X138094401Y-45776733D01*
X138094401Y-45776733D01*
G37*
D11*
X135105516Y-43425954D03*
D10*
G36*
X124508164Y-34146658D02*
X123342342Y-36012364D01*
X121476636Y-34846542D01*
X122642458Y-32980836D01*
X124508164Y-34146658D01*
X124508164Y-34146658D01*
G37*
D11*
X120838358Y-33150605D03*
D10*
G36*
X153027246Y-57381531D02*
X152824031Y-59572126D01*
X150633436Y-59368911D01*
X150836651Y-57178316D01*
X153027246Y-57381531D01*
X153027246Y-57381531D01*
G37*
D11*
X149301200Y-58140600D03*
D12*
X103733600Y-109245400D03*
D13*
X103733600Y-111785400D03*
X106273600Y-109245400D03*
X106273600Y-111785400D03*
X108813600Y-109245400D03*
X108813600Y-111785400D03*
D14*
X133572400Y-64676600D03*
X128572400Y-64676600D03*
D15*
X134572400Y-61976600D03*
X127572400Y-61976600D03*
D16*
X118551200Y-100507800D03*
D17*
X116051200Y-100507800D03*
D18*
X110922400Y-97186600D03*
X107922400Y-97186600D03*
X104922400Y-97186600D03*
D19*
X97372000Y-68741400D03*
X140372000Y-68741400D03*
X140372000Y-102981400D03*
X97372000Y-102981400D03*
D12*
X111262400Y-80006600D03*
D13*
X108722400Y-80006600D03*
X106182400Y-80006600D03*
X103642400Y-80006600D03*
M02*
