G04 #@! TF.FileFunction,Soldermask,Top*
%FSLAX46Y46*%
G04 Gerber Fmt 4.6, Leading zero omitted, Abs format (unit mm)*
G04 Created by KiCad (PCBNEW 4.0.6) date 11/24/17 03:10:44*
%MOMM*%
%LPD*%
G01*
G04 APERTURE LIST*
%ADD10C,0.100000*%
%ADD11C,0.900000*%
%ADD12C,2.200000*%
%ADD13R,2.100000X2.100000*%
%ADD14O,2.100000X2.100000*%
%ADD15R,0.900000X1.300000*%
%ADD16R,1.400000X0.900000*%
%ADD17R,1.000000X1.500000*%
%ADD18R,0.700000X1.050000*%
%ADD19R,1.050000X0.700000*%
%ADD20R,2.400000X2.400000*%
%ADD21R,1.500000X2.300000*%
%ADD22R,1.000000X0.750000*%
%ADD23R,2.000000X2.500000*%
%ADD24R,1.150000X1.200000*%
%ADD25R,0.900000X1.000000*%
%ADD26R,1.200000X1.150000*%
%ADD27R,1.400000X2.000000*%
%ADD28R,1.000000X0.900000*%
%ADD29R,0.800000X1.000000*%
%ADD30R,1.000000X0.800000*%
%ADD31R,1.700000X1.450000*%
%ADD32R,0.620000X0.940000*%
%ADD33R,0.940000X0.620000*%
%ADD34R,1.700000X1.100000*%
%ADD35R,1.100000X1.700000*%
%ADD36R,1.650000X1.400000*%
%ADD37R,1.400000X1.650000*%
%ADD38R,1.300000X0.900000*%
%ADD39R,0.800000X1.750000*%
%ADD40O,1.650000X1.350000*%
%ADD41O,1.400000X1.950000*%
%ADD42R,2.250000X2.250000*%
%ADD43C,2.250000*%
%ADD44R,2.200000X1.400000*%
%ADD45R,0.850000X0.800000*%
%ADD46R,1.200000X2.300000*%
%ADD47C,1.924000*%
%ADD48R,0.750000X1.200000*%
%ADD49R,1.200000X0.750000*%
%ADD50R,1.650000X1.650000*%
%ADD51R,1.421080X2.940000*%
%ADD52R,0.755600X1.568400*%
%ADD53R,1.500000X2.000000*%
%ADD54R,0.650000X0.800000*%
%ADD55R,0.900000X0.800000*%
%ADD56R,1.000000X1.000000*%
%ADD57C,2.100000*%
G04 APERTURE END LIST*
D10*
D11*
X118072800Y-77279800D03*
X118072800Y-76279800D03*
X118072800Y-75279800D03*
X118072800Y-74279800D03*
X118072800Y-73279800D03*
X118072800Y-72279800D03*
X118072800Y-71279800D03*
X118072800Y-70279800D03*
X117072800Y-77279800D03*
X117072800Y-76279800D03*
X117072800Y-75279800D03*
X117072800Y-74279800D03*
X117072800Y-73279800D03*
X117072800Y-72279800D03*
X117072800Y-71279800D03*
X117072800Y-70279800D03*
X116072800Y-77279800D03*
X116072800Y-76279800D03*
X116072800Y-75279800D03*
X116072800Y-74279800D03*
X116072800Y-73279800D03*
X116072800Y-72279800D03*
X116072800Y-71279800D03*
X116072800Y-70279800D03*
X115072800Y-77279800D03*
X115072800Y-76279800D03*
X115072800Y-75279800D03*
X115072800Y-74279800D03*
X115072800Y-73279800D03*
X115072800Y-72279800D03*
X115072800Y-71279800D03*
X115072800Y-70279800D03*
X114072800Y-77279800D03*
X114072800Y-76279800D03*
X114072800Y-75279800D03*
X114072800Y-74279800D03*
X114072800Y-73279800D03*
X114072800Y-72279800D03*
X114072800Y-71279800D03*
X114072800Y-70279800D03*
X113072800Y-77279800D03*
X113072800Y-76279800D03*
X113072800Y-75279800D03*
X113072800Y-74279800D03*
X113072800Y-73279800D03*
X113072800Y-72279800D03*
X113072800Y-71279800D03*
X113072800Y-70279800D03*
X112072800Y-77279800D03*
X112072800Y-76279800D03*
X112072800Y-75279800D03*
X112072800Y-74279800D03*
X112072800Y-73279800D03*
X112072800Y-72279800D03*
X112072800Y-71279800D03*
X112072800Y-70279800D03*
X111072800Y-77279800D03*
X111072800Y-76279800D03*
X111072800Y-75279800D03*
X111072800Y-74279800D03*
X111072800Y-73279800D03*
X111072800Y-72279800D03*
X111072800Y-71279800D03*
X111072800Y-70279800D03*
X110072800Y-77279800D03*
X110072800Y-76279800D03*
X110072800Y-75279800D03*
X110072800Y-74279800D03*
X110072800Y-73279800D03*
X110072800Y-72279800D03*
X110072800Y-71279800D03*
X110072800Y-70279800D03*
X109072800Y-77279800D03*
X109072800Y-76279800D03*
X109072800Y-75279800D03*
X109072800Y-74279800D03*
X109072800Y-73279800D03*
X109072800Y-72279800D03*
X109072800Y-71279800D03*
X109072800Y-70279800D03*
X108072800Y-77279800D03*
X108072800Y-76279800D03*
X108072800Y-75279800D03*
X108072800Y-74279800D03*
X108072800Y-73279800D03*
X108072800Y-72279800D03*
X108072800Y-71279800D03*
X108072800Y-70279800D03*
X107072800Y-77279800D03*
X107072800Y-76279800D03*
X107072800Y-75279800D03*
X107072800Y-74279800D03*
X107072800Y-73279800D03*
X107072800Y-72279800D03*
X107072800Y-71279800D03*
X107072800Y-70279800D03*
X118072800Y-69279800D03*
X118072800Y-68279800D03*
X118072800Y-67279800D03*
X118072800Y-66279800D03*
X117072800Y-69279800D03*
X117072800Y-68279800D03*
X117072800Y-67279800D03*
X117072800Y-66279800D03*
X116072800Y-69279800D03*
X116072800Y-68279800D03*
X116072800Y-67279800D03*
X116072800Y-66279800D03*
X115072800Y-69279800D03*
X115072800Y-68279800D03*
X115072800Y-67279800D03*
X115072800Y-66279800D03*
X114072800Y-69279800D03*
X114072800Y-68279800D03*
X114072800Y-67279800D03*
X114072800Y-66279800D03*
X113072800Y-69279800D03*
X113072800Y-68279800D03*
X113072800Y-67279800D03*
X113072800Y-66279800D03*
X112072800Y-69279800D03*
X112072800Y-68279800D03*
X112072800Y-67279800D03*
X112072800Y-66279800D03*
X111072800Y-69279800D03*
X111072800Y-68279800D03*
X111072800Y-67279800D03*
X111072800Y-66279800D03*
X110072800Y-69279800D03*
X110072800Y-68279800D03*
X110072800Y-67279800D03*
X110072800Y-66279800D03*
X109072800Y-69279800D03*
X109072800Y-68279800D03*
X109072800Y-67279800D03*
X109072800Y-66279800D03*
X108072800Y-69279800D03*
X108072800Y-68279800D03*
X108072800Y-67279800D03*
X108072800Y-66279800D03*
X107072800Y-69279800D03*
X107072800Y-68279800D03*
X107072800Y-67279800D03*
X107072800Y-66279800D03*
D10*
G36*
X128968164Y-38136658D02*
X127802342Y-40002364D01*
X125936636Y-38836542D01*
X127102458Y-36970836D01*
X128968164Y-38136658D01*
X128968164Y-38136658D01*
G37*
D12*
X125298358Y-37140605D03*
D10*
G36*
X113202342Y-35700836D02*
X114368164Y-37566542D01*
X112502458Y-38732364D01*
X111336636Y-36866658D01*
X113202342Y-35700836D01*
X113202342Y-35700836D01*
G37*
D12*
X110698358Y-38562595D03*
D10*
G36*
X106194548Y-38249598D02*
X107969861Y-39548931D01*
X106670528Y-41324244D01*
X104895215Y-40024911D01*
X106194548Y-38249598D01*
X106194548Y-38249598D01*
G37*
D12*
X104932400Y-41836600D03*
D13*
X133654800Y-111683800D03*
D14*
X133654800Y-109143800D03*
X131114800Y-111683800D03*
X131114800Y-109143800D03*
X128574800Y-111683800D03*
X128574800Y-109143800D03*
D15*
X103123600Y-103305400D03*
X101623600Y-103305400D03*
D16*
X119992400Y-68246600D03*
X124992400Y-68246600D03*
X124992400Y-66246600D03*
X119992400Y-66246600D03*
D17*
X130428000Y-71480800D03*
X131378000Y-71480800D03*
X132328000Y-71480800D03*
X132328000Y-68880800D03*
X130428000Y-68880800D03*
X131378000Y-68880800D03*
D18*
X122586000Y-61807000D03*
X122086000Y-61807000D03*
X121586000Y-61807000D03*
X121086000Y-61807000D03*
D19*
X120286000Y-62607000D03*
X120286000Y-63107000D03*
X120286000Y-63607000D03*
X120286000Y-64107000D03*
D18*
X121086000Y-64907000D03*
X121586000Y-64907000D03*
X122086000Y-64907000D03*
X122586000Y-64907000D03*
D19*
X123386000Y-64107000D03*
X123386000Y-63607000D03*
X123386000Y-63107000D03*
X123386000Y-62607000D03*
D20*
X121836000Y-63357000D03*
D21*
X111322800Y-63648600D03*
X113822800Y-63648600D03*
D22*
X125149800Y-74663200D03*
X125149800Y-73713200D03*
X125149800Y-72763200D03*
X127949800Y-72763200D03*
X127949800Y-73713200D03*
X127949800Y-74663200D03*
D23*
X126549800Y-73713200D03*
D24*
X136502400Y-61736600D03*
X136502400Y-63236600D03*
D25*
X119952400Y-71916600D03*
X119952400Y-70816600D03*
D26*
X135522400Y-70942200D03*
X134022400Y-70942200D03*
D24*
X123660000Y-77609000D03*
X123660000Y-76109000D03*
D27*
X134120000Y-68891400D03*
X137120000Y-68891400D03*
D28*
X126335800Y-76262800D03*
X127435800Y-76262800D03*
D25*
X121107200Y-74083000D03*
X121107200Y-72983000D03*
X122424000Y-74032200D03*
X122424000Y-72932200D03*
D26*
X130466400Y-73025000D03*
X131966400Y-73025000D03*
D25*
X119951600Y-74069600D03*
X119951600Y-72969600D03*
X125133200Y-76627200D03*
X125133200Y-77727200D03*
D26*
X126632400Y-71501000D03*
X125132400Y-71501000D03*
D28*
X119909600Y-77719600D03*
X121009600Y-77719600D03*
D24*
X123803600Y-74498800D03*
X123803600Y-72998800D03*
D29*
X127513600Y-77837600D03*
X126613600Y-77837600D03*
D30*
X119989600Y-75355600D03*
X119989600Y-76255600D03*
D26*
X131814000Y-78054200D03*
X130314000Y-78054200D03*
D30*
X122237600Y-76879600D03*
X122237600Y-77779600D03*
D29*
X121279600Y-75805600D03*
X122179600Y-75805600D03*
D10*
G36*
X147709305Y-55282910D02*
X147506090Y-57473505D01*
X145315495Y-57270290D01*
X145518710Y-55079695D01*
X147709305Y-55282910D01*
X147709305Y-55282910D01*
G37*
D12*
X143983259Y-56041979D03*
D10*
G36*
X134451285Y-41517379D02*
X132649151Y-42779247D01*
X131387283Y-40977113D01*
X133189417Y-39715245D01*
X134451285Y-41517379D01*
X134451285Y-41517379D01*
G37*
D12*
X131462400Y-39166600D03*
D10*
G36*
X94529677Y-54786774D02*
X94694630Y-56980581D01*
X92500823Y-57145534D01*
X92335870Y-54951727D01*
X94529677Y-54786774D01*
X94529677Y-54786774D01*
G37*
D12*
X90982400Y-56156600D03*
D10*
G36*
X101844410Y-42269277D02*
X103619723Y-43568610D01*
X102320390Y-45343923D01*
X100545077Y-44044590D01*
X101844410Y-42269277D01*
X101844410Y-42269277D01*
G37*
D12*
X100582262Y-45856279D03*
D10*
G36*
X89066827Y-58007220D02*
X89231780Y-60201027D01*
X87037973Y-60365980D01*
X86873020Y-58172173D01*
X89066827Y-58007220D01*
X89066827Y-58007220D01*
G37*
D12*
X85519550Y-59377046D03*
D10*
G36*
X117662342Y-31940836D02*
X118828164Y-33806542D01*
X116962458Y-34972364D01*
X115796636Y-33106658D01*
X117662342Y-31940836D01*
X117662342Y-31940836D01*
G37*
D12*
X115158358Y-34802595D03*
D10*
G36*
X138094401Y-45776733D02*
X136292267Y-47038601D01*
X135030399Y-45236467D01*
X136832533Y-43974599D01*
X138094401Y-45776733D01*
X138094401Y-45776733D01*
G37*
D12*
X135105516Y-43425954D03*
D10*
G36*
X124508164Y-34146658D02*
X123342342Y-36012364D01*
X121476636Y-34846542D01*
X122642458Y-32980836D01*
X124508164Y-34146658D01*
X124508164Y-34146658D01*
G37*
D12*
X120838358Y-33150605D03*
D10*
G36*
X153027246Y-57381531D02*
X152824031Y-59572126D01*
X150633436Y-59368911D01*
X150836651Y-57178316D01*
X153027246Y-57381531D01*
X153027246Y-57381531D01*
G37*
D12*
X149301200Y-58140600D03*
D31*
X105692800Y-62469600D03*
X105692800Y-64319600D03*
X109292800Y-62469600D03*
X109292800Y-64319600D03*
D32*
X104341260Y-71957360D03*
X103941260Y-71957360D03*
X103541260Y-71957360D03*
X103141260Y-71957360D03*
X102741260Y-71957360D03*
X102341260Y-71957360D03*
D33*
X101846260Y-72452360D03*
X101846260Y-72852360D03*
X101846260Y-73252360D03*
X101846260Y-73652360D03*
X101846260Y-74052360D03*
X101846260Y-74452360D03*
D32*
X102341260Y-74947360D03*
X102741260Y-74947360D03*
X103141260Y-74947360D03*
X103541260Y-74947360D03*
X103941260Y-74947360D03*
X104341260Y-74947360D03*
D33*
X104836260Y-74452360D03*
X104836260Y-74052360D03*
X104836260Y-73652360D03*
X104836260Y-73252360D03*
X104836260Y-72852360D03*
X104836260Y-72452360D03*
D13*
X103733600Y-109245400D03*
D14*
X103733600Y-111785400D03*
X106273600Y-109245400D03*
X106273600Y-111785400D03*
X108813600Y-109245400D03*
X108813600Y-111785400D03*
D34*
X122843300Y-102849400D03*
X122843300Y-100949400D03*
D28*
X127283400Y-104627400D03*
X126183400Y-104627400D03*
D35*
X127384900Y-98760000D03*
X125484900Y-98760000D03*
D36*
X111674100Y-100934500D03*
X111674100Y-102934500D03*
D28*
X107005400Y-99232700D03*
X108105400Y-99232700D03*
D37*
X106918200Y-104858800D03*
X108918200Y-104858800D03*
D30*
X128672600Y-102468400D03*
X128672600Y-103368400D03*
X129802900Y-101552300D03*
X129802900Y-100652300D03*
X128659900Y-100677700D03*
X128659900Y-101577700D03*
D38*
X130044200Y-104297900D03*
X130044200Y-102797900D03*
D30*
X104612900Y-102434800D03*
X104612900Y-103334800D03*
X105743200Y-103345800D03*
X105743200Y-102445800D03*
D15*
X101613600Y-104945400D03*
X103113600Y-104945400D03*
X103273600Y-100035400D03*
X101773600Y-100035400D03*
D39*
X132372400Y-64676600D03*
X131722400Y-64676600D03*
X131072400Y-64676600D03*
X130422400Y-64676600D03*
X129772400Y-64676600D03*
D40*
X133572400Y-64676600D03*
X128572400Y-64676600D03*
D41*
X134572400Y-61976600D03*
X127572400Y-61976600D03*
D24*
X117182400Y-104546600D03*
X117182400Y-106046600D03*
D10*
G36*
X86014535Y-55913909D02*
X84867772Y-56000135D01*
X84777797Y-54803513D01*
X85924560Y-54717287D01*
X86014535Y-55913909D01*
X86014535Y-55913909D01*
G37*
G36*
X86127003Y-57409687D02*
X84980240Y-57495913D01*
X84890265Y-56299291D01*
X86037028Y-56213065D01*
X86127003Y-57409687D01*
X86127003Y-57409687D01*
G37*
G36*
X98705996Y-48169635D02*
X98130996Y-49165565D01*
X97091766Y-48565565D01*
X97666766Y-47569635D01*
X98705996Y-48169635D01*
X98705996Y-48169635D01*
G37*
G36*
X100005034Y-48919635D02*
X99430034Y-49915565D01*
X98390804Y-49315565D01*
X98965804Y-48319635D01*
X100005034Y-48919635D01*
X100005034Y-48919635D01*
G37*
G36*
X99467996Y-46963135D02*
X98892996Y-47959065D01*
X97853766Y-47359065D01*
X98428766Y-46363135D01*
X99467996Y-46963135D01*
X99467996Y-46963135D01*
G37*
G36*
X100767034Y-47713135D02*
X100192034Y-48709065D01*
X99152804Y-48109065D01*
X99727804Y-47113135D01*
X100767034Y-47713135D01*
X100767034Y-47713135D01*
G37*
D24*
X118232700Y-35956500D03*
X118232700Y-37456500D03*
X119807500Y-35956500D03*
X119807500Y-37456500D03*
D10*
G36*
X139666552Y-48344620D02*
X138853380Y-47531448D01*
X139701908Y-46682920D01*
X140515080Y-47496092D01*
X139666552Y-48344620D01*
X139666552Y-48344620D01*
G37*
G36*
X138605892Y-49405280D02*
X137792720Y-48592108D01*
X138641248Y-47743580D01*
X139454420Y-48556752D01*
X138605892Y-49405280D01*
X138605892Y-49405280D01*
G37*
G36*
X140769305Y-49459047D02*
X139956133Y-48645875D01*
X140804661Y-47797347D01*
X141617833Y-48610519D01*
X140769305Y-49459047D01*
X140769305Y-49459047D01*
G37*
G36*
X139708645Y-50519707D02*
X138895473Y-49706535D01*
X139744001Y-48858007D01*
X140557173Y-49671179D01*
X139708645Y-50519707D01*
X139708645Y-50519707D01*
G37*
D24*
X100736400Y-70979000D03*
X100736400Y-72479000D03*
X100736400Y-75425400D03*
X100736400Y-73925400D03*
D26*
X104171760Y-76401860D03*
X102671760Y-76401860D03*
D10*
G36*
X88550545Y-57864486D02*
X87254204Y-57961958D01*
X87186723Y-57064492D01*
X88483064Y-56967020D01*
X88550545Y-57864486D01*
X88550545Y-57864486D01*
G37*
G36*
X88438077Y-56368708D02*
X87141736Y-56466180D01*
X87074255Y-55568714D01*
X88370596Y-55471242D01*
X88438077Y-56368708D01*
X88438077Y-56368708D01*
G37*
G36*
X117119534Y-32109810D02*
X116017071Y-32798705D01*
X115540144Y-32035462D01*
X116642607Y-31346567D01*
X117119534Y-32109810D01*
X117119534Y-32109810D01*
G37*
G36*
X116324656Y-30837738D02*
X115222193Y-31526633D01*
X114745266Y-30763390D01*
X115847729Y-30074495D01*
X116324656Y-30837738D01*
X116324656Y-30837738D01*
G37*
G36*
X101604646Y-42480802D02*
X100836858Y-43529851D01*
X100110594Y-42998306D01*
X100878382Y-41949257D01*
X101604646Y-42480802D01*
X101604646Y-42480802D01*
G37*
G36*
X100394206Y-41594894D02*
X99626418Y-42643943D01*
X98900154Y-42112398D01*
X99667942Y-41063349D01*
X100394206Y-41594894D01*
X100394206Y-41594894D01*
G37*
G36*
X137932242Y-45227340D02*
X137186593Y-44162443D01*
X137923830Y-43646224D01*
X138669479Y-44711121D01*
X137932242Y-45227340D01*
X137932242Y-45227340D01*
G37*
G36*
X139160970Y-44366976D02*
X138415321Y-43302079D01*
X139152558Y-42785860D01*
X139898207Y-43850757D01*
X139160970Y-44366976D01*
X139160970Y-44366976D01*
G37*
G36*
X124197729Y-33698705D02*
X123095266Y-33009810D01*
X123572193Y-32246567D01*
X124674656Y-32935462D01*
X124197729Y-33698705D01*
X124197729Y-33698705D01*
G37*
G36*
X124992607Y-32426633D02*
X123890144Y-31737738D01*
X124367071Y-30974495D01*
X125469534Y-31663390D01*
X124992607Y-32426633D01*
X124992607Y-32426633D01*
G37*
G36*
X152598776Y-57051511D02*
X151304334Y-56931429D01*
X151387468Y-56035277D01*
X152681910Y-56155359D01*
X152598776Y-57051511D01*
X152598776Y-57051511D01*
G37*
G36*
X152737332Y-55557923D02*
X151442890Y-55437841D01*
X151526024Y-54541689D01*
X152820466Y-54661771D01*
X152737332Y-55557923D01*
X152737332Y-55557923D01*
G37*
G36*
X92804939Y-52663296D02*
X93702406Y-52595815D01*
X93777385Y-53593000D01*
X92879918Y-53660481D01*
X92804939Y-52663296D01*
X92804939Y-52663296D01*
G37*
G36*
X92887415Y-53760200D02*
X93784882Y-53692719D01*
X93859861Y-54689904D01*
X92962394Y-54757385D01*
X92887415Y-53760200D01*
X92887415Y-53760200D01*
G37*
G36*
X103449319Y-38219596D02*
X103980864Y-37493332D01*
X104787825Y-38083938D01*
X104256280Y-38810202D01*
X103449319Y-38219596D01*
X103449319Y-38219596D01*
G37*
G36*
X104336975Y-38869262D02*
X104868520Y-38142998D01*
X105675481Y-38733604D01*
X105143936Y-39459868D01*
X104336975Y-38869262D01*
X104336975Y-38869262D01*
G37*
G36*
X110624363Y-34664614D02*
X111387606Y-34187686D01*
X111917525Y-35035734D01*
X111154282Y-35512662D01*
X110624363Y-34664614D01*
X110624363Y-34664614D01*
G37*
G36*
X111207275Y-35597466D02*
X111970518Y-35120538D01*
X112500437Y-35968586D01*
X111737194Y-36445514D01*
X111207275Y-35597466D01*
X111207275Y-35597466D01*
G37*
G36*
X128767194Y-35357686D02*
X129530437Y-35834614D01*
X129000518Y-36682662D01*
X128237275Y-36205734D01*
X128767194Y-35357686D01*
X128767194Y-35357686D01*
G37*
G36*
X128184282Y-36290538D02*
X128947525Y-36767466D01*
X128417606Y-37615514D01*
X127654363Y-37138586D01*
X128184282Y-36290538D01*
X128184282Y-36290538D01*
G37*
G36*
X135404401Y-38905726D02*
X135920619Y-39642963D01*
X135101467Y-40216540D01*
X134585249Y-39479303D01*
X135404401Y-38905726D01*
X135404401Y-38905726D01*
G37*
G36*
X134503333Y-39536660D02*
X135019551Y-40273897D01*
X134200399Y-40847474D01*
X133684181Y-40110237D01*
X134503333Y-39536660D01*
X134503333Y-39536660D01*
G37*
G36*
X146311313Y-52719522D02*
X147207465Y-52802655D01*
X147115095Y-53798380D01*
X146218943Y-53715247D01*
X146311313Y-52719522D01*
X146311313Y-52719522D01*
G37*
G36*
X146209705Y-53814820D02*
X147105857Y-53897953D01*
X147013487Y-54893678D01*
X146117335Y-54810545D01*
X146209705Y-53814820D01*
X146209705Y-53814820D01*
G37*
D29*
X127192400Y-68676600D03*
X128092400Y-68676600D03*
X126992400Y-67156600D03*
X127892400Y-67156600D03*
D42*
X118551200Y-100507800D03*
D43*
X116051200Y-100507800D03*
D44*
X122635200Y-110147400D03*
X114865200Y-109977400D03*
X122665200Y-108737400D03*
X114835200Y-108567400D03*
X102373600Y-101645400D03*
X105093600Y-104925400D03*
X129185200Y-98947800D03*
D45*
X107066200Y-100438800D03*
X107066200Y-101238800D03*
X107066200Y-102038800D03*
X107066200Y-102838800D03*
X110016200Y-102838800D03*
X110016200Y-102038800D03*
X110016200Y-101238800D03*
X110016200Y-100438800D03*
D46*
X109091200Y-101638800D03*
X107991200Y-101638800D03*
D45*
X127282600Y-103294400D03*
X127282600Y-102494400D03*
X127282600Y-101694400D03*
X127282600Y-100894400D03*
X124332600Y-100894400D03*
X124332600Y-101694400D03*
X124332600Y-102494400D03*
X124332600Y-103294400D03*
D46*
X125257600Y-102094400D03*
X126357600Y-102094400D03*
D47*
X110922400Y-97186600D03*
X107922400Y-97186600D03*
X104922400Y-97186600D03*
D36*
X115562400Y-105946600D03*
X115562400Y-103946600D03*
D24*
X118592400Y-104516600D03*
X118592400Y-106016600D03*
D25*
X114122400Y-107026600D03*
X114122400Y-105926600D03*
D48*
X117690200Y-111727400D03*
X118340200Y-111727400D03*
X118990200Y-111727400D03*
X119640200Y-111727400D03*
D49*
X120665200Y-110702400D03*
X120665200Y-110052400D03*
X120665200Y-109402400D03*
X120665200Y-108752400D03*
D48*
X119640200Y-107727400D03*
X118990200Y-107727400D03*
X118340200Y-107727400D03*
X117690200Y-107727400D03*
D49*
X116665200Y-108752400D03*
X116665200Y-109402400D03*
X116665200Y-110052400D03*
X116665200Y-110702400D03*
D50*
X119290200Y-109102400D03*
X118040200Y-109102400D03*
X119290200Y-110352400D03*
X118040200Y-110352400D03*
D28*
X113115200Y-109827400D03*
X112015200Y-109827400D03*
X113065200Y-108767400D03*
X111965200Y-108767400D03*
X124395200Y-108877400D03*
X125495200Y-108877400D03*
X124385200Y-110867400D03*
X125485200Y-110867400D03*
X111972000Y-107670600D03*
X113072000Y-107670600D03*
X124395200Y-107887400D03*
X125495200Y-107887400D03*
X111985200Y-110847400D03*
X113085200Y-110847400D03*
D10*
G36*
X89508671Y-52890903D02*
X89403701Y-51494844D01*
X90301167Y-51427363D01*
X90406137Y-52823422D01*
X89508671Y-52890903D01*
X89508671Y-52890903D01*
G37*
G36*
X88995463Y-54734573D02*
X88890493Y-53338514D01*
X89787959Y-53271033D01*
X89892929Y-54667092D01*
X88995463Y-54734573D01*
X88995463Y-54734573D01*
G37*
G36*
X90291803Y-54637100D02*
X90186833Y-53241041D01*
X91084299Y-53173560D01*
X91189269Y-54569619D01*
X90291803Y-54637100D01*
X90291803Y-54637100D01*
G37*
G36*
X102075236Y-40401611D02*
X100945491Y-39574763D01*
X101477036Y-38848499D01*
X102606781Y-39675347D01*
X102075236Y-40401611D01*
X102075236Y-40401611D01*
G37*
G36*
X103143871Y-41989225D02*
X102014126Y-41162377D01*
X102545671Y-40436113D01*
X103675416Y-41262961D01*
X103143871Y-41989225D01*
X103143871Y-41989225D01*
G37*
G36*
X103911658Y-40940177D02*
X102781913Y-40113329D01*
X103313458Y-39387065D01*
X104443203Y-40213913D01*
X103911658Y-40940177D01*
X103911658Y-40940177D01*
G37*
G36*
X108564795Y-36215454D02*
X107822908Y-35028187D01*
X108586151Y-34551260D01*
X109328038Y-35738527D01*
X108564795Y-36215454D01*
X108564795Y-36215454D01*
G37*
G36*
X108967418Y-38086388D02*
X108225531Y-36899121D01*
X108988774Y-36422194D01*
X109730661Y-37609461D01*
X108967418Y-38086388D01*
X108967418Y-38086388D01*
G37*
G36*
X110069881Y-37397493D02*
X109327994Y-36210226D01*
X110091237Y-35733299D01*
X110833124Y-36920566D01*
X110069881Y-37397493D01*
X110069881Y-37397493D01*
G37*
G36*
X126496762Y-34138527D02*
X127238649Y-32951260D01*
X128001892Y-33428187D01*
X127260005Y-34615454D01*
X126496762Y-34138527D01*
X126496762Y-34138527D01*
G37*
G36*
X124991676Y-35320566D02*
X125733563Y-34133299D01*
X126496806Y-34610226D01*
X125754919Y-35797493D01*
X124991676Y-35320566D01*
X124991676Y-35320566D01*
G37*
G36*
X126094139Y-36009461D02*
X126836026Y-34822194D01*
X127599269Y-35299121D01*
X126857382Y-36486388D01*
X126094139Y-36009461D01*
X126094139Y-36009461D01*
G37*
G36*
X137126679Y-38769934D02*
X135979866Y-39572941D01*
X135463647Y-38835704D01*
X136610460Y-38032697D01*
X137126679Y-38769934D01*
X137126679Y-38769934D01*
G37*
G36*
X138973978Y-38269945D02*
X137827165Y-39072952D01*
X137310946Y-38335715D01*
X138457759Y-37532708D01*
X138973978Y-38269945D01*
X138973978Y-38269945D01*
G37*
G36*
X138228328Y-37205047D02*
X137081515Y-38008054D01*
X136565296Y-37270817D01*
X137712109Y-36467810D01*
X138228328Y-37205047D01*
X138228328Y-37205047D01*
G37*
G36*
X147306090Y-51403504D02*
X147176771Y-52797519D01*
X146280618Y-52714386D01*
X146409937Y-51320371D01*
X147306090Y-51403504D01*
X147306090Y-51403504D01*
G37*
G36*
X148119579Y-49671241D02*
X147990260Y-51065256D01*
X147094107Y-50982123D01*
X147223426Y-49588108D01*
X148119579Y-49671241D01*
X148119579Y-49671241D01*
G37*
G36*
X146825136Y-49551159D02*
X146695817Y-50945174D01*
X145799664Y-50862041D01*
X145928983Y-49468026D01*
X146825136Y-49551159D01*
X146825136Y-49551159D01*
G37*
D24*
X132451600Y-103543800D03*
X132451600Y-102043800D03*
D36*
X136566400Y-101946200D03*
X136566400Y-103946200D03*
D51*
X134409940Y-99542600D03*
X132118860Y-99542600D03*
D15*
X131244400Y-106337100D03*
X132744400Y-106337100D03*
D52*
X133772400Y-103936800D03*
X134432800Y-103936800D03*
X135093200Y-103936800D03*
X135093200Y-101854000D03*
X134432800Y-101854000D03*
X133772400Y-101854000D03*
D44*
X134991600Y-105486200D03*
D53*
X130875400Y-76105000D03*
D54*
X130200400Y-76105000D03*
D55*
X131925400Y-75455000D03*
X131925400Y-76755000D03*
D56*
X107362400Y-95566600D03*
X106192400Y-95566600D03*
X106782400Y-95566600D03*
D28*
X102702400Y-106216600D03*
X101602400Y-106216600D03*
D25*
X101742400Y-109446600D03*
X101742400Y-108346600D03*
X135712400Y-112466600D03*
X135712400Y-111366600D03*
X136772400Y-111366600D03*
X136772400Y-112466600D03*
X100642400Y-110916600D03*
X100642400Y-112016600D03*
X101722400Y-112026600D03*
X101722400Y-110926600D03*
X135882400Y-109236600D03*
X135882400Y-108136600D03*
X136952400Y-108146600D03*
X136952400Y-109246600D03*
D26*
X119262400Y-102876600D03*
X117762400Y-102876600D03*
D53*
X122742400Y-70926600D03*
D54*
X122067400Y-70926600D03*
D55*
X123792400Y-70276600D03*
X123792400Y-71576600D03*
D57*
X97372000Y-68741400D03*
X140372000Y-68741400D03*
X140372000Y-102981400D03*
X97372000Y-102981400D03*
D13*
X111262400Y-80006600D03*
D14*
X108722400Y-80006600D03*
X106182400Y-80006600D03*
X103642400Y-80006600D03*
D29*
X124505200Y-109947400D03*
X125405200Y-109947400D03*
D38*
X105743200Y-101613800D03*
X105743200Y-100113800D03*
M02*
