M48
;DRILL file {KiCad 4.0.6} date 11/24/17 03:10:52
;FORMAT={2:4/ absolute / inch / suppress leading zeros}
FMAT,2
INCH,TZ
T1C0.012
T2C0.016
T3C0.020
T4C0.022
T5C0.030
T6C0.035
T7C0.039
T8C0.047
%
G90
G05
M72
T1
X33615Y-21420
X33685Y-22815
X37395Y-19845
X38190Y-19751
X38958Y-16259
X39057Y-18196
X39834Y-18536
X39977Y-26371
X40406Y-28833
X40466Y-29180
X40584Y-29951
X40617Y-26774
X41238Y-27141
X41430Y-37625
X41580Y-27044
X41604Y-27505
X41926Y-29877
X42459Y-28175
X42633Y-15338
X42779Y-27039
X42828Y-28053
X42828Y-27661
X43206Y-26995
X43296Y-27357
X43336Y-28850
X43442Y-27963
X43847Y-28739
X43934Y-27861
X43966Y-39738
X44532Y-27390
X44649Y-27866
X44659Y-27035
X44908Y-13116
X44997Y-27600
X45074Y-27905
X45316Y-11869
X45522Y-26270
X45576Y-24841
X45808Y-27805
X45920Y-27051
X46096Y-28043
X46358Y-26573
X46395Y-41711
X46729Y-28262
X46910Y-27199
X47190Y-28252
X47209Y-30297
X47260Y-29510
X47462Y-25621
X47489Y-14680
X47535Y-12465
X47643Y-30892
X47682Y-30319
X47962Y-28444
X48072Y-27239
X48336Y-30262
X48364Y-40492
X48548Y-24388
X48741Y-27928
X48977Y-27038
X49182Y-25652
X49236Y-43986
X49237Y-12227
X49269Y-29888
X50020Y-43990
X50462Y-42192
X50880Y-28250
X50922Y-30963
X51190Y-40837
X51721Y-26660
X52048Y-39207
X53710Y-16815
X54320Y-18861
X54914Y-24333
X54942Y-16991
X55343Y-20329
X58785Y-22340
X59895Y-21377
T2
X41231Y-40183
X41631Y-39258
X41933Y-40182
X42276Y-40893
X42516Y-40015
X42949Y-40015
X43536Y-40173
X48759Y-40042
X49776Y-40196
X49937Y-38987
X50309Y-40092
X50659Y-40892
X51059Y-40092
T5
X41308Y-38262
X42489Y-38262
X43670Y-38262
T6
X33669Y-23377
X34666Y-23302
X35820Y-22109
X36817Y-22034
X39599Y-18054
X40190Y-17247
X41312Y-16471
X41903Y-15664
X43582Y-15182
X44430Y-14652
X45338Y-13702
X45689Y-39570
X46186Y-13172
X46674Y-39570
X47574Y-13051
X48422Y-13581
X49330Y-14622
X50178Y-15152
X51757Y-15420
X52330Y-16239
X53191Y-17097
X53765Y-17916
X56686Y-22064
X57682Y-22156
X58780Y-22890
X59776Y-22982
T7
X40804Y-31499
X40840Y-43010
X40840Y-44010
X41804Y-31499
X41840Y-43010
X41840Y-44010
X42804Y-31499
X42840Y-43010
X42840Y-44010
X43804Y-31499
X50620Y-42970
X50620Y-43970
X51620Y-42970
X51620Y-43970
X52620Y-42970
X52620Y-43970
T8
X38335Y-27064
X38335Y-40544
X55265Y-27064
X55265Y-40544
T3
X50225Y-24272G85X50225Y-24528
G05
X52981Y-24272G85X52981Y-24528
G05
T4
X50678Y-25463G85X50560Y-25463
G05
X52647Y-25463G85X52529Y-25463
G05
T0
M30
